# xmcd
#
# Track frame offsets:
#	150
#	18213
#	32792
#	48850
#	61725
#	81360
#	98782
#	114578
#	129832
#	143892
#	160573
#	178886
#	198201
#	213092
#	231009
#	241194
#	258477
#
# Disc length: 3724 seconds
#
# Revision: 4294377463
# Processed by: cddbd v1.5.2PL0 Copyright (c) Steve Scherf et al.
# Submitted via: EZCDAudioConverter 9.0.2.1
#
DISCID=d50e8a11
DTITLE=Anne Murray - Duets: Friends and Legends
DYEAR=2008
DGENRE=Country
TTITLE0=Anne Murray and Martina Mcbride - Danny's Song
TTITLE1=Anne Murray and Dusty Springfield - I Just Fall In Love Again
TTITLE2=Anne Murray and Emmylou Harris - Another Pot O' Tea
TTITLE3=Anne Murray and Nelly Furtado - Daydream Believer
TTITLE4=Anne Murray and Jann Arden - Somebody's Always Saying Goodbye
TTITLE5=Anne Murray and Celtic Woman - Song For The Mira
TTITLE6=Anne Murray and Carole King - Time Don't Run Out On Me
TTITLE7=Anne Murray and Olivia Newton - Cotton Jenny
TTITLE8=Anne Murray and K.D. Lang - A Love Song
TTITLE9=Anne Murray and Shania Twain - You Needed Me
TTITLE10=Anne Murray and Dawn Langstroth - Nobody Loves Me Like You Do
TTITLE11=Anne Murray and Shelby Lynne - You Won't See Me
TTITLE12=Anne Murray and Amy Grant - Could I Have This Dance
TTITLE13=Anne Murray and Indigo Girls - A Little Good News
TTITLE14=Anne Murray and Sarah Brightman - Snowbird
TTITLE15=Anne Murray and Céline Dion - When I Fall In Love (Live)
TTITLE16=Anne Murray and Isabelle Boulay - Si Jamais Je Te Revois
EXTD=
EXTT0=
EXTT1=
EXTT2=
EXTT3=
EXTT4=
EXTT5=
EXTT6=
EXTT7=
EXTT8=
EXTT9=
EXTT10=
EXTT11=
EXTT12=
EXTT13=
EXTT14=
EXTT15=
EXTT16=
PLAYORDER=
